<svg  xmlns="http://www.w3.org/2000/svg" viewBox="0 0 519.008 460.147">
  <path d="M519.008,67.334V4.843c-109.379,0-145.365,61.32-180.166,120.619-16.254,27.697-32.902,55.932-57.76,82.348-.042,0-.089-.004-.132-.004v.142c-5.402,5.732-11.245,11.366-17.5,16.903V0h-68.082V268.862c-39.289,16.488-82.76,18.712-127.285,12.882V0H0V460.147H68.082v-115.181c14.238,1.617,28.476,2.591,42.657,2.591,28.606-.002,56.978-3.625,84.628-12.149v124.739h68.082v-157.18c17.863-11.482,33.289-23.641,46.801-36.135,54.926,14.854,132.08,69.904,132.08,193.316h54.68c0-137.295-78.451-208.304-147.29-236.855,17.538-22.883,30.925-45.598,43.014-66.199,32.848-55.973,52.674-89.759,126.272-89.759Z" fill="#fff"/>
</svg>